name Walk5.mot
datacolumns 19
datarows 30
range 1.86000000 2.00500000
endheader

                time	   L_ground_force_vx	   L_ground_force_vy	   L_ground_force_vz	   L_ground_force_px	   L_ground_force_py	   L_ground_force_pz	   R_ground_force_vx	   R_ground_force_vy	   R_ground_force_vz	   R_ground_force_px	   R_ground_force_py	   R_ground_force_pz	   L_ground_torque_x	   L_ground_torque_y	   L_ground_torque_z	   R_ground_torque_x	   R_ground_torque_y	   R_ground_torque_z	
          1.86000000	          0.00000000	          0.00000000	          0.00000000	          0.00000000	          0.00000000	          0.00000000	         14.52421135	         56.80425697	          3.70548860	          0.22252365	          0.00000000	          0.05484388	          0.00000000	          0.00000000	          0.00000000	          0.00000000	         -4.64967862	          0.00000000	
          1.86500000	          0.00000000	          0.00000000	          0.00000000	          0.00000000	          0.00000000	          0.00000000	          9.96145316	         38.55587882	          3.51670257	          0.19651484	          0.00000000	          0.04844151	          0.00000000	          0.00000000	          0.00000000	          0.00000000	         -3.53630574	          0.00000000	
          1.87000000	          0.00000000	          0.00000000	         -0.00000000	         -0.00000000	          0.00000000	         -0.00000000	          6.24831881	         23.95957388	          3.13700131	          0.16653301	          0.00000000	          0.04104916	          0.00000000	         -0.00000000	          0.00000000	          0.00000000	         -2.55492502	          0.00000000	
          1.87500000	          0.00000000	          0.00000000	         -0.00000000	         -0.00000000	          0.00000000	         -0.00000000	          3.37227880	         12.72802671	          2.64840151	          0.13456827	          0.00000000	          0.03316392	          0.00000000	         -0.00000000	          0.00000000	          0.00000000	         -1.72535981	          0.00000000	
          1.88000000	          0.00000000	          0.00000000	         -0.00000000	         -0.00000000	          0.00000000	         -0.00000000	          1.26120456	          4.51918141	          2.12566083	          0.10343555	          0.00000000	          0.02548632	          0.00000000	         -0.00000000	          0.00000000	          0.00000000	         -1.05694805	          0.00000000	
          1.88500000	          0.00000000	          0.00000000	         -0.00000000	         -0.00000000	          0.00000000	         -0.00000000	         -0.19233249	         -1.10240466	          1.62232329	          0.07529024	          0.00000000	          0.01854717	          0.00000000	         -0.00000000	          0.00000000	          0.00000000	         -0.54471673	          0.00000000	
          1.89000000	          0.00000000	          0.00000000	         -0.00000000	         -0.00000000	          0.00000000	         -0.00000000	         -1.10924646	         -4.62023203	          1.17123652	          0.05128665	          0.00000000	          0.01263036	          0.00000000	         -0.00000000	          0.00000000	          0.00000000	         -0.17315220	          0.00000000	
          1.89500000	          0.00000000	          0.00000000	         -0.00000000	         -0.00000000	          0.00000000	         -0.00000000	         -1.60951765	         -6.51074209	          0.78933267	          0.03183746	          0.00000000	          0.00783712	          0.00000000	         -0.00000000	          0.00000000	          0.00000000	          0.07881918	          0.00000000	
          1.90000000	          0.00000000	          0.00000000	         -0.00000000	         -0.00000000	          0.00000000	         -0.00000000	         -1.80303849	         -7.20816858	          0.48199845	          0.01684711	          0.00000000	          0.00414349	          0.00000000	         -0.00000000	          0.00000000	          0.00000000	          0.23416990	          0.00000000	
          1.90500000	          0.00000000	          0.00000000	         -0.00000000	         -0.00000000	          0.00000000	         -0.00000000	         -1.78454111	         -7.08533571	          0.24679073	          0.00590169	          0.00000000	          0.00144713	          0.00000000	         -0.00000000	          0.00000000	          0.00000000	          0.31527330	          0.00000000	
          1.91000000	          0.00000000	          0.00000000	         -0.00000000	         -0.00000000	          0.00000000	         -0.00000000	         -1.63154347	         -6.44620098	          0.07643840	         -0.00158415	          0.00000000	         -0.00039644	          0.00000000	         -0.00000000	          0.00000000	          0.00000000	          0.34234904	          0.00000000	
          1.91500000	         -0.00000000	          0.00000000	         -0.00000000	         -0.00000000	          0.00000000	         -0.00000000	         -1.40439369	         -5.52651971	         -0.03885059	         -0.00625939	          0.00000000	         -0.00154733	          0.00000000	         -0.00000000	          0.00000000	          0.00000000	          0.33263651	          0.00000000	
          1.92000000	         -0.00000000	         -0.00000000	         -0.00000000	         -0.00000000	          0.00000000	         -0.00000000	         -1.14765638	         -4.49966504	         -0.10971058	         -0.00876248	          0.00000000	         -0.00216300	          0.00000000	         -0.00000000	          0.00000000	          0.00000000	          0.30010053	          0.00000000	
          1.92500000	         -0.00000000	         -0.00000000	         -0.00000000	         -0.00000000	          0.00000000	         -0.00000000	         -0.89224997	         -3.48529393	         -0.14647494	         -0.00967467	          0.00000000	         -0.00238675	          0.00000000	         -0.00000000	          0.00000000	          0.00000000	          0.25550151	          0.00000000	
          1.93000000	         -0.00000000	         -0.00000000	         -0.00000000	         -0.00000000	          0.00000000	         -0.00000000	         -0.65789660	         -2.55915278	         -0.15846681	         -0.00949448	          0.00000000	         -0.00234147	          0.00000000	         -0.00000000	          0.00000000	          0.00000000	          0.20669395	          0.00000000	
          1.93500000	         -0.00000000	         -0.00000000	         -0.00000000	         -0.00000000	          0.00000000	         -0.00000000	         -0.45557866	         -1.76283836	         -0.15362416	         -0.00862803	          0.00000000	         -0.00212726	          0.00000000	         -0.00000000	          0.00000000	          0.00000000	          0.15904761	          0.00000000	
          1.94000000	         -0.00000000	         -0.00000000	          0.00000000	          0.00000000	          0.00000000	          0.00000000	         -0.28980532	         -1.11275815	         -0.13836885	         -0.00739002	          0.00000000	         -0.00182164	          0.00000000	          0.00000000	          0.00000000	          0.00000000	          0.11591419	          0.00000000	
          1.94500000	         -0.00000000	         -0.00000000	          0.00000000	          0.00000000	          0.00000000	          0.00000000	         -0.16057799	         -0.60786859	         -0.11764261	         -0.00601165	          0.00000000	         -0.00148159	          0.00000000	          0.00000000	          0.00000000	          0.00000000	          0.07908616	          0.00000000	
          1.95000000	         -0.00000000	         -0.00000000	          0.00000000	          0.00000000	          0.00000000	          0.00000000	         -0.06500723	         -0.23601764	         -0.09504716	         -0.00465228	          0.00000000	         -0.00114634	          0.00000000	          0.00000000	          0.00000000	          0.00000000	          0.04921429	          0.00000000	
          1.95500000	         -0.00000000	         -0.00000000	          0.00000000	          0.00000000	          0.00000000	          0.00000000	          0.00142173	          0.02110931	         -0.07304006	         -0.00341260	          0.00000000	         -0.00084070	          0.00000000	          0.00000000	          0.00000000	          0.00000000	          0.02616579	          0.00000000	
          1.96000000	         -0.00000000	         -0.00000000	          0.00000000	          0.00000000	          0.00000000	          0.00000000	          0.04390889	          0.18433035	         -0.05315075	         -0.00234772	          0.00000000	         -0.00057820	          0.00000000	          0.00000000	          0.00000000	          0.00000000	          0.00931583	          0.00000000	
          1.96500000	         -0.00000000	         -0.00000000	          0.00000000	          0.00000000	          0.00000000	          0.00000000	          0.06768243	          0.27442254	         -0.03619254	         -0.00147916	          0.00000000	         -0.00036414	          0.00000000	          0.00000000	          0.00000000	          0.00000000	         -0.00222649	          0.00000000	
          1.97000000	         -0.00000000	         -0.00000000	          0.00000000	          0.00000000	          0.00000000	          0.00000000	          0.07757507	          0.31049342	         -0.02245517	         -0.00080519	          0.00000000	         -0.00019807	          0.00000000	          0.00000000	          0.00000000	          0.00000000	         -0.00945227	          0.00000000	
          1.97500000	         -0.00000000	         -0.00000000	          0.00000000	          0.00000000	          0.00000000	          0.00000000	          0.07778378	          0.30906869	         -0.01186973	         -0.00030930	          0.00000000	         -0.00007590	          0.00000000	          0.00000000	          0.00000000	          0.00000000	         -0.01333846	          0.00000000	
          1.98000000	         -0.00000000	         -0.00000000	          0.00000000	          0.00000000	          0.00000000	          0.00000000	          0.07176587	          0.28371145	         -0.00414274	          0.00003317	          0.00000000	          0.00000844	          0.00000000	          0.00000000	          0.00000000	          0.00000000	         -0.01477569	          0.00000000	
          1.98500000	          0.00000000	         -0.00000000	          0.00000000	          0.00000000	          0.00000000	          0.00000000	          0.06223089	          0.24501219	          0.00114007	          0.00025016	          0.00000000	          0.00006186	          0.00000000	          0.00000000	          0.00000000	          0.00000000	         -0.01452878	          0.00000000	
          1.99000000	          0.00000000	          0.00000000	          0.00000000	          0.00000000	          0.00000000	          0.00000000	          0.05119457	          0.20081761	          0.00443766	          0.00036953	          0.00000000	          0.00009123	          0.00000000	          0.00000000	          0.00000000	          0.00000000	         -0.01322139	          0.00000000	
          1.99500000	          0.00000000	          0.00000000	          0.00000000	          0.00000000	          0.00000000	          0.00000000	          0.04006833	          0.15659423	          0.00620138	          0.00041685	          0.00000000	          0.00010284	          0.00000000	          0.00000000	          0.00000000	          0.00000000	         -0.01133733	          0.00000000	
          2.00000000	          0.00000000	          0.00000000	          0.00000000	          0.00000000	          0.00000000	          0.00000000	          0.02976436	          0.11584993	          0.00684197	          0.00041423	          0.00000000	          0.00010216	          0.00000000	          0.00000000	          0.00000000	          0.00000000	         -0.00923248	          0.00000000	
          2.00500000	          0.00000000	          0.00000000	          0.00000000	          0.00000000	          0.00000000	          0.00000000	          0.02080263	          0.08055907	          0.00671165	          0.00037979	          0.00000000	          0.00009364	          0.00000000	          0.00000000	          0.00000000	          0.00000000	         -0.00715250	          0.00000000	
